<?xml version="1.0" encoding="UTF-8" standalone="no"?><!DOCTYPE svg PUBLIC "-//W3C//DTD SVG 1.1//EN" "http://www.w3.org/Graphics/SVG/1.1/DTD/svg11.dtd"><svg width="100%" height="100%" viewBox="0 0 95 113" version="1.1" xmlns="http://www.w3.org/2000/svg" xmlns:xlink="http://www.w3.org/1999/xlink" xml:space="preserve" xmlns:serif="http://www.serif.com/" style="fill-rule:evenodd;clip-rule:evenodd;stroke-linejoin:round;stroke-miterlimit:1.41421;"><g><path d="M19.832,3.864l-15.979,16.68l-0.001,32.799l14.957,15.239l-14.957,0l0.001,24.041l16.033,16.199l54.645,0l16.045,-16.199l0,-34.533l-13.825,-13.992l13.825,0l0,-23.554l-15.99,-16.68l-54.754,0l0,0Zm1.624,3.805l51.504,0l13.807,14.406l0,18.213l-20.384,0l0,5.734l6.992,0l13.392,13.735l0,31.297l-13.819,13.96l-51.471,0l-13.817,-13.96l0,-18.672l19.578,0l0,-6.524l-5.769,0l-13.809,-14.07l0,-29.713l13.797,-14.406l-0.001,0Zm22.021,19.838l12.549,9.82l0,-9.82l-12.549,0Zm-5.826,8.672l0,9.843l12.79,0l-12.79,-9.843Zm0.016,33.921l0,10.235l18.359,0l0,-3.571l7.38,0l0,-3.269l-7.38,0l0,-3.395l-18.359,0Z" style="fill-rule:nonzero;"/><path d="M22.269,9.575l-12.706,13.265l0,28.167l12.706,12.95l5.677,0l5.885,-4.196l26.028,0l6.534,4.735l0,9l-1.089,0l0,3.268l1.089,0l0,9.483l-6.444,4.639l-26.011,0l-6.7,-4.879l0,-11.719l-17.675,0l0,15.982l12.706,12.84l49.879,0l12.715,-12.84l0,-29.743l-12.347,-12.601l-6.133,0l0,2.995l-9.57,0l-3.899,-2.995l-15.263,0l0,2.948l-10.413,-0.014l0,-28.187l10.059,0l3.745,2.933l14.984,0l0,-2.933l10.357,0l0,15.714l18.48,0l0,-15.547l-12.715,-13.265l-49.879,0Zm6.872,15l0,24.401l6.61,0l0,-16.66l21.705,16.703l7.02,0l0,-24.444l-6.543,0l0,16.667l-21.292,-16.667l-7.5,0Zm5.3,37.093l-5.3,3.773l0,19.598l5.354,3.952l24.844,0l5.161,-3.712l0,-6.608l-6.567,0l0,3.568l-22.167,0l0,-14.04l22.167,0l0,3.393l6.567,0l0,-6.132l-5.258,-3.792l-24.801,0Z" style="fill:#c00;fill-rule:nonzero;"/><path d="M18.613,1.005l-17.617,18.39l0,35.117l11.008,11.213l-11.008,0l0,28.073l17.703,17.88l57.027,0l2.792,-2.824c0.661,0.888 1.722,1.464 2.914,1.464c2.007,0 3.631,-1.624 3.631,-3.624c0,-1.216 -0.6,-2.28 -1.496,-2.944l9.856,-9.952l0,-36.779l-9.736,-10.067l9.736,0l0,-27.557l-17.619,-18.39l-57.191,0l0,0Zm1.219,2.859l54.753,0l15.99,16.68l0,23.554l-13.825,0l13.825,13.992l0,34.533l-16.044,16.199l-54.645,0l-16.033,-16.199l-0.001,-24.041l14.957,0l-14.957,-15.239l0.001,-32.799l15.979,-16.68Zm1.624,3.805l-13.796,14.406l0,29.713l13.809,14.07l5.769,0l0,6.524l-19.578,0l0,18.672l13.817,13.96l51.472,0l13.819,-13.96l0,-31.297l-13.393,-13.735l-6.992,0l0,-5.734l20.385,0l0,-18.213l-13.807,-14.406l-51.504,0l-0.001,0Zm0.813,1.906l49.879,0l12.715,13.265l0,15.547l-18.48,0l0,-15.715l-10.357,0l0,2.934l-14.984,0l-3.745,-2.934l-10.059,0l0,28.186l10.413,0.016l0,-2.948l15.263,0l3.899,2.995l9.57,0l0,-2.995l6.133,0l12.347,12.601l0,29.743l-12.715,12.84l-49.879,0l-12.706,-12.84l0,-15.982l17.675,0l0,11.719l6.7,4.879l26.011,0l6.444,-4.639l0,-9.483l-1.089,0l0,-3.268l1.089,0l0,-9l-6.534,-4.735l-26.028,0l-5.885,4.196l-5.677,0l-12.706,-12.95l0,-28.167l12.706,-13.265Zm6.872,15l7.5,0l21.292,16.667l0,-16.667l6.543,0l0,24.444l-7.02,0l-21.705,-16.703l0,16.66l-6.61,0l0,-24.401Zm14.336,2.933l12.549,0l0,9.819l-12.549,-9.819Zm-5.826,8.671l12.79,9.843l-12.79,0l0,-9.843Zm-3.21,25.489l24.801,0l5.258,3.792l0,6.132l-6.567,0l0,-3.393l-22.167,0l0,14.04l22.167,0l0,-3.568l6.567,0l0,6.608l-5.161,3.712l-24.844,0l-5.354,-3.952l0,-19.598l5.3,-3.773Zm3.226,8.432l18.359,0l0,3.396l7.38,0l0,3.268l-7.38,0l0,3.571l-18.359,0l0,-10.235Z" style="fill:#fff;fill-rule:nonzero;"/></g></svg>